<?xml version="1.0" standalone="no"?>
<!DOCTYPE svg PUBLIC "-//W3C//DTD SVG 20010904//EN"
 "http://www.w3.org/TR/2001/REC-SVG-20010904/DTD/svg10.dtd">
<svg version="1.0" xmlns="http://www.w3.org/2000/svg"
 width="100.000000pt" height="100.000000pt" viewBox="0 0 100.000000 100.000000"
 preserveAspectRatio="xMidYMid meet">
<metadata>
Created by potrace 1.14, written by Peter Selinger 2001-2017
</metadata>
<g transform="translate(0.000000,100.000000) scale(0.100000,-0.100000)"
fill="#000000" stroke="none">
<path d="M345 832 c-51 -24 -105 -69 -105 -88 0 -8 -4 -14 -8 -14 -12 0 -33
-50 -27 -61 4 -5 2 -9 -4 -9 -5 0 -8 -8 -6 -17 1 -10 -2 -26 -7 -37 -7 -13 -7
-16 1 -12 19 12 12 -12 -6 -24 -17 -11 -17 -11 0 -6 9 3 17 1 17 -4 0 -6 -4
-10 -10 -10 -5 0 -10 -4 -10 -10 0 -5 6 -7 13 -4 13 5 17 -5 18 -49 0 -11 5
-15 12 -10 7 4 6 0 -2 -10 -7 -9 -10 -17 -5 -17 5 0 16 -5 24 -10 13 -8 12
-11 -5 -24 -20 -15 -20 -15 3 -9 13 3 22 1 22 -6 0 -6 4 -10 9 -9 8 3 11 -2
11 -19 0 -3 -9 2 -20 12 -25 22 -27 13 -3 -11 10 -10 19 -21 19 -26 1 -4 2
-10 3 -13 0 -3 11 0 24 6 20 11 21 11 8 -4 -11 -14 -11 -18 3 -23 9 -3 13 -11
9 -17 -4 -6 -1 -7 7 -2 10 6 9 11 -5 22 -16 11 -16 13 -3 13 15 0 35 -34 31
-51 -1 -3 5 -6 12 -6 11 0 12 4 3 14 -8 11 -7 12 6 7 9 -3 16 -14 16 -23 0 -9
9 -22 20 -29 11 -7 20 -8 20 -3 0 5 -7 12 -16 15 -8 3 -12 11 -8 17 5 9 11 6
21 -6 7 -11 13 -15 13 -11 0 5 7 3 15 -4 8 -6 19 -9 24 -6 5 4 13 1 17 -5 4
-7 3 -9 -4 -5 -6 3 -13 2 -16 -3 -4 -5 2 -8 11 -6 10 2 18 4 18 5 0 1 15 3 33
5 30 2 36 -4 33 -32 -2 -17 7 -16 25 1 7 8 19 16 26 19 10 3 10 7 1 17 -9 10
-6 18 14 38 26 26 60 94 69 135 8 41 5 142 -6 190 -22 97 -87 184 -166 222
-56 26 -141 30 -189 7z m-54 -485 c-10 -9 -11 -8 -5 6 3 10 9 15 12 12 3 -3 0
-11 -7 -18z"/>
<path d="M440 240 c0 -5 5 -10 11 -10 5 0 7 5 4 10 -3 6 -8 10 -11 10 -2 0 -4
-4 -4 -10z"/>
<path d="M513 214 c0 -7 5 -10 11 -6 6 3 20 5 31 3 11 -2 17 0 13 4 -14 14
-55 13 -55 -1z"/>
</g>
</svg>
